<?xml version="1.0" encoding="UTF-8"?>
<!DOCTYPE svg PUBLIC "-//W3C//DTD SVG 1.1//EN" "http://www.w3.org/Graphics/SVG/1.1/DTD/svg11.dtd">
<svg xmlns="http://www.w3.org/2000/svg" version="1.1" width="400px" height="400px" style="shape-rendering:geometricPrecision; text-rendering:geometricPrecision; image-rendering:optimizeQuality; fill-rule:evenodd; clip-rule:evenodd" xmlns:xlink="http://www.w3.org/1999/xlink">
<g><path style="opacity:1" fill="#d0e0e2" d="M -0.5,-0.5 C 132.833,-0.5 266.167,-0.5 399.5,-0.5C 399.5,132.833 399.5,266.167 399.5,399.5C 266.167,399.5 132.833,399.5 -0.5,399.5C -0.5,266.167 -0.5,132.833 -0.5,-0.5 Z"/></g>
<g><path style="opacity:1" fill="#000000" d="M 41.5,37.5 C 113.5,37.5 185.5,37.5 257.5,37.5C 257.5,117.167 257.5,196.833 257.5,276.5C 232.5,276.5 207.5,276.5 182.5,276.5C 182.5,264.833 182.5,253.167 182.5,241.5C 197.167,241.5 211.833,241.5 226.5,241.5C 226.5,185.167 226.5,128.833 226.5,72.5C 175.5,72.5 124.5,72.5 73.5,72.5C 73.5,128.833 73.5,185.167 73.5,241.5C 88.1667,241.5 102.833,241.5 117.5,241.5C 117.5,253.167 117.5,264.833 117.5,276.5C 92.1667,276.5 66.8333,276.5 41.5,276.5C 41.5,196.833 41.5,117.167 41.5,37.5 Z"/></g>
<g><path style="opacity:1" fill="#6aadd1" d="M 133.5,133.5 C 158.661,132.502 183.995,132.169 209.5,132.5C 209.5,144.5 209.5,156.5 209.5,168.5C 195.167,168.5 180.833,168.5 166.5,168.5C 166.167,168.5 165.833,168.5 165.5,168.5C 165.5,168.167 165.5,167.833 165.5,167.5C 179.833,167.5 194.167,167.5 208.5,167.5C 208.5,164.833 208.5,162.167 208.5,159.5C 208.5,150.833 208.5,142.167 208.5,133.5C 183.5,133.5 158.5,133.5 133.5,133.5 Z"/></g>
<g><path style="opacity:1" fill="#1885c1" d="M 133.5,133.5 C 158.5,133.5 183.5,133.5 208.5,133.5C 208.5,142.167 208.5,150.833 208.5,159.5C 207.511,154.025 207.178,148.358 207.5,142.5C 122.177,142.166 122.177,141.166 207.5,139.5C 186.177,138.5 164.844,138.167 143.5,138.5C 143.5,137.5 143.5,136.5 143.5,135.5C 164.836,135.667 186.169,135.5 207.5,135C 183.075,134.586 158.742,134.419 134.5,134.5C 134.167,212.17 134.5,289.836 135.5,367.5C 136.5,291.17 136.833,214.836 136.5,138.5C 138.144,138.714 139.644,138.38 141,137.5C 141.495,139.473 141.662,141.473 141.5,143.5C 140.5,143.5 139.5,143.5 138.5,143.5C 138.5,218.167 138.5,292.833 138.5,367.5C 141.248,367.402 141.914,368.402 140.5,370.5C 139.209,370.263 138.209,370.596 137.5,371.5C 136.167,371.5 134.833,371.5 133.5,371.5C 133.5,292.5 133.5,213.5 133.5,134.5C 133.5,134.167 133.5,133.833 133.5,133.5 Z"/></g>
<g><path style="opacity:1" fill="#0e89cc" d="M 303.5,133.5 C 318.529,133.232 333.529,133.566 348.5,134.5C 348.5,137.5 348.5,140.5 348.5,143.5C 346.938,141.628 345.938,139.295 345.5,136.5C 343.988,137.991 342.988,139.824 342.5,142C 341.207,142.49 339.873,142.657 338.5,142.5C 338.833,217.503 338.5,292.503 337.5,367.5C 336.667,292.836 336.167,218.169 336,143.5C 335.5,218.499 335.333,293.499 335.5,368.5C 339.833,368.5 344.167,368.5 348.5,368.5C 279.508,370.497 210.175,371.163 140.5,370.5C 141.914,368.402 141.248,367.402 138.5,367.5C 138.5,292.833 138.5,218.167 138.5,143.5C 139.5,143.5 140.5,143.5 141.5,143.5C 141.662,141.473 141.495,139.473 141,137.5C 139.644,138.38 138.144,138.714 136.5,138.5C 136.833,214.836 136.5,291.17 135.5,367.5C 134.5,289.836 134.167,212.17 134.5,134.5C 158.742,134.419 183.075,134.586 207.5,135C 186.169,135.5 164.836,135.667 143.5,135.5C 143.5,136.5 143.5,137.5 143.5,138.5C 164.844,138.167 186.177,138.5 207.5,139.5C 122.177,141.166 122.177,142.166 207.5,142.5C 207.178,148.358 207.511,154.025 208.5,159.5C 208.5,162.167 208.5,164.833 208.5,167.5C 194.167,167.5 179.833,167.5 165.5,167.5C 164.502,191.328 164.169,215.328 164.5,239.5C 164.163,217.98 163.163,196.647 161.5,175.5C 161.167,223.505 161.5,271.505 162.5,319.5C 163.167,298.004 163.833,276.671 164.5,255.5C 165.153,282.56 164.486,309.393 162.5,336C 162.833,336.333 163.167,336.667 163.5,337C 189.748,338.158 216.082,338.658 242.5,338.5C 268.336,338.5 294.002,338.167 319.5,337.5C 319.832,280.664 319.499,223.998 318.5,167.5C 318.167,167.5 317.833,167.5 317.5,167.5C 307.013,166.506 296.346,166.172 285.5,166.5C 285.662,164.473 285.495,162.473 285,160.5C 284.586,160.043 284.086,159.709 283.5,159.5C 282.505,154.208 282.172,148.875 282.5,143.5C 289.508,143.666 296.508,143.5 303.5,143C 294.482,142.832 285.482,142.332 276.5,141.5C 296.468,139.76 316.468,138.593 336.5,138C 328.165,137.52 319.832,137.02 311.5,136.5C 303.512,137.166 295.512,137.499 287.5,137.5C 287.5,136.5 287.5,135.5 287.5,134.5C 293.026,134.821 298.36,134.488 303.5,133.5 Z"/></g>
<g><path style="opacity:1" fill="#1688c4" d="M 274.5,133.5 C 284.167,133.5 293.833,133.5 303.5,133.5C 298.36,134.488 293.026,134.821 287.5,134.5C 287.5,135.5 287.5,136.5 287.5,137.5C 295.512,137.499 303.512,137.166 311.5,136.5C 319.832,137.02 328.165,137.52 336.5,138C 316.468,138.593 296.468,139.76 276.5,141.5C 285.482,142.332 294.482,142.832 303.5,143C 296.508,143.5 289.508,143.666 282.5,143.5C 282.172,148.875 282.505,154.208 283.5,159.5C 284.086,159.709 284.586,160.043 285,160.5C 285.495,162.473 285.662,164.473 285.5,166.5C 296.346,166.172 307.013,166.506 317.5,167.5C 303.167,167.5 288.833,167.5 274.5,167.5C 274.5,156.167 274.5,144.833 274.5,133.5 Z"/></g>
<g><path style="opacity:1" fill="#0d8ac7" d="M 348.5,143.5 C 348.5,218.5 348.5,293.5 348.5,368.5C 344.167,368.5 339.833,368.5 335.5,368.5C 335.333,293.499 335.5,218.499 336,143.5C 336.167,218.169 336.667,292.836 337.5,367.5C 338.5,292.503 338.833,217.503 338.5,142.5C 339.873,142.657 341.207,142.49 342.5,142C 342.988,139.824 343.988,137.991 345.5,136.5C 345.938,139.295 346.938,141.628 348.5,143.5 Z"/></g>
<g><path style="opacity:1" fill="#1385d3" d="M 341.5,143.5 C 342.833,180.494 343.5,217.827 343.5,255.5C 343.167,292.833 342.833,330.167 342.5,367.5C 341.5,292.836 341.167,218.17 341.5,143.5 Z"/></g>
<g><path style="opacity:1" fill="#b6e9fe" d="M 349.5,132.5 C 350.169,211.373 350.836,290.373 351.5,369.5C 351.043,370.298 350.376,370.631 349.5,370.5C 349.5,291.167 349.5,211.833 349.5,132.5 Z"/></g>
<g><path style="opacity:1" fill="#0d8cbe" d="M 161.5,175.5 C 160.667,223.332 160.167,271.332 160,319.5C 159.167,271.163 159.333,222.83 160.5,174.5C 161.107,174.624 161.44,174.957 161.5,175.5 Z"/></g>
<g><path style="opacity:1" fill="#098bd7" d="M 161.5,175.5 C 163.163,196.647 164.163,217.98 164.5,239.5C 164.5,244.833 164.5,250.167 164.5,255.5C 163.833,276.671 163.167,298.004 162.5,319.5C 161.5,271.505 161.167,223.505 161.5,175.5 Z"/></g>
<g><path style="opacity:1" fill="#d1dfea" d="M 130.5,141.5 C 131.164,217.174 130.497,292.507 128.5,367.5C 127.836,291.826 128.503,216.493 130.5,141.5 Z"/></g>
<g><path style="opacity:1" fill="#d2e2d1" d="M 132.5,137.5 C 132.827,214.874 132.494,292.208 131.5,369.5C 130.022,369.762 128.689,369.429 127.5,368.5C 127.624,367.893 127.957,367.56 128.5,367.5C 130.497,292.507 131.164,217.174 130.5,141.5C 130.157,139.517 130.824,138.183 132.5,137.5 Z"/></g>
<g><path style="opacity:1" fill="#b1e4fb" d="M 274.5,167.5 C 288.833,167.5 303.167,167.5 317.5,167.5C 317.833,167.5 318.167,167.5 318.5,167.5C 318.5,223.833 318.5,280.167 318.5,336.5C 267.833,336.5 217.167,336.5 166.5,336.5C 165.501,280.669 165.168,224.669 165.5,168.5C 165.833,168.5 166.167,168.5 166.5,168.5C 166.5,224.167 166.5,279.833 166.5,335.5C 167.5,335.5 168.5,335.5 169.5,335.5C 170.167,335.5 170.833,335.5 171.5,335.5C 216.833,335.5 262.167,335.5 307.5,335.5C 308.5,335.5 309.5,335.5 310.5,335.5C 311.167,335.5 311.833,335.5 312.5,335.5C 313.167,335.5 313.833,335.5 314.5,335.5C 315.167,335.5 315.833,335.5 316.5,335.5C 317.819,279.98 317.819,224.313 316.5,168.5C 302.323,168.829 288.323,168.496 274.5,167.5 Z"/></g>
<g><path style="opacity:1" fill="#d0deee" d="M 171.5,335.5 C 170.833,335.5 170.167,335.5 169.5,335.5C 170.167,122.167 170.833,122.167 171.5,335.5 Z"/></g>
<g><path style="opacity:1" fill="#d4e0dd" d="M 314.5,175.5 C 316.496,228.49 317.162,281.823 316.5,335.5C 315.833,335.5 315.167,335.5 314.5,335.5C 314.5,282.167 314.5,228.833 314.5,175.5 Z"/></g>
<g><path style="opacity:1" fill="#c9e6e5" d="M 314.5,175.5 C 314.5,228.833 314.5,282.167 314.5,335.5C 313.833,335.5 313.167,335.5 312.5,335.5C 311.838,281.823 312.504,228.49 314.5,175.5 Z"/></g>
<g><path style="opacity:1" fill="#cfe2dd" d="M 310.5,335.5 C 309.5,335.5 308.5,335.5 307.5,335.5C 307.5,282.167 307.5,228.833 307.5,175.5C 308.5,175.5 309.5,175.5 310.5,175.5C 310.5,228.833 310.5,282.167 310.5,335.5 Z"/></g>
<g><path style="opacity:1" fill="#2e80a6" d="M 318.5,167.5 C 319.499,223.998 319.832,280.664 319.5,337.5C 268.331,337.832 217.331,337.499 166.5,336.5C 217.167,336.5 267.833,336.5 318.5,336.5C 318.5,280.167 318.5,223.833 318.5,167.5 Z"/></g>
<g><path style="opacity:1" fill="#1a85bb" d="M 165.5,167.5 C 165.5,167.833 165.5,168.167 165.5,168.5C 165.168,224.669 165.501,280.669 166.5,336.5C 217.331,337.499 268.331,337.832 319.5,337.5C 294.002,338.167 268.336,338.5 242.5,338.5C 216.082,338.658 189.748,338.158 163.5,337C 163.167,336.667 162.833,336.333 162.5,336C 164.486,309.393 165.153,282.56 164.5,255.5C 164.5,250.167 164.5,244.833 164.5,239.5C 164.169,215.328 164.502,191.328 165.5,167.5 Z"/></g>
<g><path style="opacity:1" fill="#2c87b7" d="M 274.5,133.5 C 299.328,132.502 324.328,132.169 349.5,132.5C 349.5,211.833 349.5,291.167 349.5,370.5C 349.5,371.167 349.167,371.5 348.5,371.5C 278.167,371.5 207.833,371.5 137.5,371.5C 138.209,370.596 139.209,370.263 140.5,370.5C 210.175,371.163 279.508,370.497 348.5,368.5C 348.5,293.5 348.5,218.5 348.5,143.5C 348.5,140.5 348.5,137.5 348.5,134.5C 333.529,133.566 318.529,133.232 303.5,133.5C 293.833,133.5 284.167,133.5 274.5,133.5 Z"/></g>
<g><path style="opacity:1" fill="#bce7fb" d="M 133.5,134.5 C 133.5,213.5 133.5,292.5 133.5,371.5C 134.833,371.5 136.167,371.5 137.5,371.5C 207.833,371.5 278.167,371.5 348.5,371.5C 276.668,372.666 204.668,372.832 132.5,372C 131.748,371.329 131.414,370.496 131.5,369.5C 132.494,292.208 132.827,214.874 132.5,137.5C 132.263,136.209 132.596,135.209 133.5,134.5 Z"/></g>
<g><path style="opacity:1" fill="#d2ddea" d="M 335.5,373.5 C 336.725,374.152 337.392,375.319 337.5,377C 336.941,381.277 336.274,381.444 335.5,377.5C 266.163,377.833 196.83,377.5 127.5,376.5C 197.171,376.165 266.505,375.165 335.5,373.5 Z"/></g>
</svg>
